# xmcd
#
# Track frame offsets: 
#        150
#        12373
#        22541
#        34450
#        46926
#        60056
#        68336
#        78528
#        90516
#        101533
#        114125
#        122717
#        134788
#        144136
#        156754
#        167420
#        180218
#        191704
#        199289
#        210734
#        221350
#        233762
#        244682
#        255453
#        265496
#        277369
#        288286
#        298858
#        308951
#        321222
#        333153
#        345116
#
# Disc length: 4788 seconds
#
# Revision: 0
# Processed by: cddbd v1.5.2PL0 Copyright (c) Steve Scherf et al.
# Submitted via: ExactAudioCopy v0.99pb5
#
DISCID=bd12b220
DTITLE=Various Artist - Skiffle Showcase
DYEAR=2009
DGENRE=Skiffle
TTITLE0=Chas McDevitt Skiffle Group - New Orleans
TTITLE1=The Cranes Skiffle Group - Don't You Rock Me Daddy-O
TTITLE2=Chas McDevitt Skiffle Group - Bad Man Stack-o-lee 1
TTITLE3=Chas McDevitt Skiffle Group - Worried Man
TTITLE4=Chas McDevitt Skiffle Group feat. Nancy Whiskey - Freight Trai
TTITLE4=n
TTITLE5=The Cranes Skiffle Group - Cumberland Gap
TTITLE6=Chas McDevitt Skiffle Group - I'm Satisfied
TTITLE7=Chas McDevitt Skiffle Group feat. Nancy Whiskey - Face in the 
TTITLE7=Rain
TTITLE8=Chas McDevitt Skiffle Group feat. Tony Kohn - Sing Sing Sing
TTITLE9=Chas McDevitt Skiffle Group - The Cotton Song
TTITLE10=The Coffee Bar Skifflers - Steamboat Bill
TTITLE11=Chas McDevitt Skiffle Group feat. Tony Kohn - Sporting Life
TTITLE12=Nancy Whiskey and Her Skifflers - Ella Speed
TTITLE13=The Hallelujah Skiffle Group feat. Clinton Ford - I Saw the L
TTITLE13=ight
TTITLE14=Chas McDevitt Skiffle Group feat. Nancy Whiskey - Greenback D
TTITLE14=ollar
TTITLE15=Chas McDevitt Skiffle Group - Everyday of the Week
TTITLE16=Nancy Whiskey and Her Skifflers - He's Solid Gone
TTITLE17=The Coffee Bar Skifflers - River Line
TTITLE18=Chas McDevitt Skiffle Group - Bad Man Stack-o-lee 2
TTITLE19=The Hallelujah Skiffle Group feat. Clinton Ford - Jesus Remem
TTITLE19=bered Me
TTITLE20=Chas McDevitt Skiffle Group - Poor Howard
TTITLE21=Chas McDevitt Skiffle Group feat. Nancy Whiskey - Johnny-O
TTITLE22=Chas McDevitt Skiffle Group - Deep Down
TTITLE23=The Coffee Bar Skifflers - Ella Speed
TTITLE24=Chas McDevitt Skiffle Group feat. Shirley Douglas - Across th
TTITLE24=e Bridge
TTITLE25=Chas McDevitt Skiffle Group feat. Bill Bramwell - My Old Man
TTITLE26=The Hallelujah Skiffle Group feat. Clinton Ford - In the Swee
TTITLE26=t Bye and Bye
TTITLE27=The Coffee Bar Skifflers - She's Solid Gone
TTITLE28=The Cranes Skiffle Group - Freight Train
TTITLE29=The Coffee Bar Skifflers - Bad Man Stack-o-lee
TTITLE30=The Cranes Skiffle Group - The Banana Boat Song
TTITLE31=Lonnie Donegan - The Passing Stranger
EXTD=
EXTT0=
EXTT1=
EXTT2=
EXTT3=
EXTT4=
EXTT5=
EXTT6=
EXTT7=
EXTT8=
EXTT9=
EXTT10=
EXTT11=
EXTT12=
EXTT13=
EXTT14=
EXTT15=
EXTT16=
EXTT17=
EXTT18=
EXTT19=
EXTT20=
EXTT21=
EXTT22=
EXTT23=
EXTT24=
EXTT25=
EXTT26=
EXTT27=
EXTT28=
EXTT29=
EXTT30=
EXTT31=
PLAYORDER=
